<svg
        xmlns="http://www.w3.org/2000/svg"
        xmlns:xlink="http://www.w3.org/1999/xlink"
        width="6.879cm" height="1.341cm">
    <path fill-rule="evenodd"  fill="rgb(88, 176, 246)"
          d="M27.517,36.998 L27.517,37.000 L18.174,37.000 L18.174,34.471 C12.723,31.289 9.037,25.419 8.976,18.670 L8.967,18.670 L8.967,-0.000 L27.689,-0.000 L27.689,0.010 C37.819,0.121 46.000,8.351 46.000,18.500 C46.000,28.705 37.728,36.979 27.517,36.998 ZM27.466,14.249 C25.798,14.249 24.369,15.218 23.669,16.617 C22.894,14.524 20.896,13.025 18.533,13.025 C15.499,13.025 13.040,15.483 13.040,18.517 C13.040,21.550 15.499,24.009 18.533,24.009 C20.896,24.009 22.894,22.509 23.669,20.416 C24.369,21.815 25.798,22.784 27.466,22.784 C29.819,22.784 31.727,20.874 31.727,18.517 C31.727,16.159 29.819,14.249 27.466,14.249 Z"/>
    <path fill-rule="evenodd"  fill="rgb(255, 255, 255)"
          d="M18.516,37.000 C8.347,37.000 0.101,28.808 0.008,18.670 L-0.000,18.670 L-0.000,-0.000 L18.756,-0.000 L18.756,0.012 C28.870,0.141 37.033,8.363 37.033,18.500 C37.033,28.717 28.742,37.000 18.516,37.000 ZM18.516,14.249 C16.153,14.249 14.238,16.159 14.238,18.517 C14.238,20.874 16.153,22.784 18.516,22.784 C20.879,22.784 22.794,20.874 22.794,18.517 C22.794,16.159 20.879,14.249 18.516,14.249 Z"/>
    <path fill-rule="evenodd"  fill="rgb(255, 255, 255)"
          d="M192.291,29.970 L192.291,3.984 L195.000,3.984 L195.000,29.970 L192.291,29.970 ZM179.254,30.332 C177.785,30.332 176.436,30.198 175.209,29.934 L175.209,38.004 L172.500,38.004 L172.500,11.874 L175.172,11.874 L175.172,13.177 C177.002,12.067 178.808,11.512 180.590,11.512 C182.877,11.512 184.538,12.242 185.574,13.701 C186.609,15.162 187.127,17.568 187.127,20.922 C187.127,24.276 186.519,26.682 185.303,28.142 C184.087,29.602 182.071,30.332 179.254,30.332 ZM183.317,15.529 C182.607,14.467 181.565,13.936 180.193,13.936 C179.470,13.936 178.694,14.057 177.863,14.298 C177.033,14.540 176.376,14.782 175.895,15.022 L175.209,15.384 L175.209,27.581 C176.918,27.847 178.218,27.979 179.109,27.979 C181.059,27.979 182.426,27.424 183.209,26.314 C183.990,25.205 184.382,23.395 184.382,20.885 C184.382,18.376 184.026,16.591 183.317,15.529 ZM150.506,30.332 C149.495,30.332 147.822,30.235 145.486,30.042 L144.475,29.934 L144.475,3.984 L147.148,3.984 L147.148,12.778 C148.977,11.934 150.747,11.512 152.457,11.512 C154.888,11.512 156.592,12.205 157.567,13.592 C158.542,14.980 159.030,17.411 159.030,20.885 C159.030,24.360 158.422,26.803 157.206,28.214 C155.990,29.626 153.757,30.332 150.506,30.332 ZM155.382,15.475 C154.780,14.449 153.708,13.936 152.168,13.936 C150.771,13.936 149.338,14.202 147.870,14.733 L147.148,14.986 L147.148,27.726 C148.712,27.847 149.820,27.907 150.470,27.907 C152.830,27.907 154.389,27.370 155.147,26.296 C155.906,25.223 156.285,23.407 156.285,20.849 C156.285,18.292 155.983,16.500 155.382,15.475 ZM127.645,22.043 C127.645,24.046 128.006,25.531 128.729,26.495 C129.451,27.460 130.709,27.943 132.503,27.943 C134.296,27.943 136.120,27.870 137.974,27.726 L139.022,27.617 L139.094,29.752 C136.349,30.138 134.002,30.332 132.052,30.332 C129.451,30.332 127.609,29.578 126.526,28.070 C125.442,26.562 124.900,24.215 124.900,21.030 C124.900,14.685 127.416,11.512 132.449,11.512 C134.881,11.512 136.698,12.194 137.902,13.556 C139.106,14.920 139.708,17.062 139.708,19.981 L139.563,22.043 L127.645,22.043 ZM135.934,15.167 C135.223,14.250 134.068,13.792 132.467,13.792 C130.865,13.792 129.662,14.274 128.855,15.239 C128.048,16.205 127.633,17.749 127.609,19.872 L136.999,19.872 C136.999,17.652 136.644,16.084 135.934,15.167 ZM112.802,29.970 L108.973,15.818 L105.145,29.970 L100.631,29.970 L96.332,11.874 L99.041,11.874 L102.689,27.617 L103.267,27.617 L107.565,12.235 L110.382,12.235 L114.679,27.617 L115.294,27.617 L118.905,11.874 L121.614,11.874 L117.316,29.970 L112.802,29.970 Z"/>
    <path fill-rule="evenodd"  fill="rgb(88, 176, 246)"
          d="M82.514,13.592 C81.358,14.980 80.780,17.393 80.780,20.831 C80.780,24.269 81.316,26.713 82.387,28.160 C83.459,29.608 85.403,30.332 88.220,30.332 C89.327,30.332 91.001,30.162 93.240,29.825 L93.132,27.581 L88.870,27.907 C86.704,27.907 85.277,27.388 84.591,26.350 C83.904,25.313 83.561,23.473 83.561,20.831 C83.561,18.189 83.928,16.380 84.663,15.402 C85.397,14.425 86.787,13.936 88.834,13.936 C89.749,13.936 91.169,14.045 93.096,14.262 L93.204,12.055 L92.338,11.946 C90.435,11.656 89.087,11.512 88.293,11.512 C85.596,11.512 83.670,12.205 82.514,13.592 Z"/>
    <path fill-rule="evenodd"  fill="rgb(88, 176, 246)"
          d="M64.665,12.778 L64.665,3.984 L61.992,3.984 L61.992,29.934 L63.004,30.042 C65.339,30.235 67.013,30.332 68.024,30.332 C71.274,30.332 73.507,29.626 74.723,28.214 C75.939,26.803 76.547,24.360 76.547,20.885 C76.547,17.411 76.060,14.980 75.084,13.592 C74.109,12.205 72.405,11.512 69.974,11.512 C68.264,11.512 66.494,11.934 64.665,12.778 L64.665,12.778 ZM64.665,27.726 L64.665,14.986 L65.387,14.733 C66.856,14.202 68.288,13.936 69.685,13.936 C71.226,13.936 72.297,14.449 72.899,15.475 C73.501,16.500 73.802,18.292 73.802,20.849 C73.802,23.407 73.423,25.223 72.664,26.296 C71.906,27.370 70.347,27.907 67.987,27.907 C67.337,27.907 66.230,27.847 64.665,27.726 L64.665,27.726 Z"/>
    <path fill-rule="evenodd"  fill="rgb(88, 176, 246)"
          d="M163.620,26.912 C163.218,27.313 163.017,27.802 163.017,28.379 C163.017,28.944 163.218,29.431 163.620,29.837 C164.021,30.244 164.511,30.447 165.090,30.447 C165.656,30.447 166.140,30.244 166.542,29.837 C166.943,29.431 167.144,28.944 167.144,28.379 C167.144,27.802 166.943,27.313 166.542,26.912 C166.140,26.512 165.656,26.312 165.090,26.312 C164.511,26.312 164.021,26.512 163.620,26.912 Z"/>
</svg>
